<svg focusable="false" class="pdfbox-brand-toolbox" viewBox="0 0 744.09448819 1052.3622047" xmlns="http://www.w3.org/2000/svg" aria-labelledby="brandImageTitle brandImageDesc" role="img">
  <title id="brandImageTitle">PDFBox Brand Logo</title>
  <desc id="brandImageDesc">The PDFBox logo showing a toolbox.</desc>
  <g transform="matrix(1.25 0 0 -1.25 -317.14 1018.08)" clip-path="url(#clipPath3375)">
    <path d="M821.924 376.535L463.24 122.525l-203.83 76.86c23.89 6.02 46.87 15.197 68.335 27.29 60.063 33.835 105.686 88.46 128.282 153.59 2.634 4.66 8.11 6.92 13.265 5.47 4.667-1.31 8.01-5.41 8.353-10.247l-3.572-188.12 334.99 193.957c2.41 1 5.113 1.028 7.54.075 2.315-.907 4.21-2.64 5.32-4.865zm-1.307 97.91l.13-78.324c-.87-2.72-3.342-4.61-6.197-4.75-3.104-.14-5.924 1.8-6.893 4.75l1.29 79.54c.386 2.92 2.893 5.09 5.835 5.04 3.37-.04 6.022-2.89 5.835-6.25z"/>
    <path d="M751.88 651.666c-.237.002-.48-.022-.723-.077l-363.512-25.15c-10.37-.73-19.583-6.76-24.588-15.87-6.943-12.64-4.677-28.26 5.864-37.72 2.85-2.56 6.22-4.49 8.97-7.16 2.19-2.12 3.93-4.65 5.12-7.45 23.7-26.86 30.3-64.76 17.08-98.05-4.75-11.96-11.97-22.77-21.2-31.73l-73.74 16.1 46.69 115.89c2.01 3.07.64 7.21-2.8 8.49-2.8 1.03-5.91-.34-7.03-3.1L286.49 448.8l-11.79 4.32c-2.097.28-4.21-.39-5.76-1.825-1.16-1.077-1.925-2.516-2.16-4.083l-11.53-189.68c1.66-1.83 4.03-2.85 6.5-2.798 2.533.05 4.913 1.22 6.5 3.197 6.22 22.46 11.216 45.23 14.96 68.22 5.137 31.55 7.91 63.43 8.3 95.39l136.152-15.28c2.396-1.09 5.032-1.56 7.66-1.35 2.75.22 5.396 1.16 7.663 2.73 41.62 19.22 83.375 38.15 125.26 56.79 41.615 18.52 83.36 36.75 125.23 54.68 1.935-.16 3.703-1.16 4.843-2.73 1.266-1.74 1.618-3.99.948-6.04-3.8-3.45-7.333-7.19-10.575-11.17-3.5-4.3-6.65-8.88-9.42-13.69.11-.34.22-.68.35-1.01.32-.85.7-1.68 1.25-2.41 2.42-3.16 7.04-3.55 9.96-.84 8.66 9.71 19.21 17.557 31.01 23.05 10.67 4.97 22.17 7.927 33.92 8.717 2.58 1.626 4.23 4.39 4.43 7.437.14 2.06-.41 4.103-1.56 5.815-3.63-.24-7.27.26-10.71 1.47-3.55 1.25-6.81 3.23-9.55 5.815l19.55 78.14c-1.4 1.684-3.13 3.07-5.08 4.06-2.28 1.16-4.81 1.76-7.37 1.746-53.05-4.71-106.21-8.08-159.433-10.11-53.34-2.035-106.73-2.72-160.1-2.056-3.79-.575-6.82 3.092-5.54 6.7.63 1.784 2.31 2.98 4.2 2.996l321.783 26.06c2.094.873 3.99 1.933 5.74 3.18 1.46 1.036 2.987 2.365 2.947 4.34-.034 1.75-1.484 3.09-3.154 3.11zm-23.61-56.02c.952-.32 1.776-.934 2.354-1.755.472-.67.76-1.45.833-2.27l-12.96-35.37c-2.706-3.39-5.87-6.4-9.404-8.92-3.324-2.37-6.945-4.3-10.77-5.73l-260.77-58.65-21.01 80.83 311.727 31.88z"/>
    <path d="M786.68 627.94c.393-18.97 2.614-37.734 6.564-56.05 3.873-17.958 9.463-35.75 19.087-51.71 3.54-5.854 7.58-11.385 12.08-16.53 1.07-1.608 1.71-3.462 1.86-5.386.14-1.842-.16-3.69-.9-5.385-54.19-15.56-108.32-31.34-162.39-47.35-54.2-16.05-108.33-32.33-162.39-48.85-.23 1.43.04 2.9.78 4.15 1.07 1.81 2.96 2.99 5.06 3.13l271.54 104.43c-4.43 19.56-7.17 39.46-8.19 59.49-.99 19.68-.32 39.4 2.02 58.97.81 4.06 4.63 6.79 8.74 6.24 2.88-.39 5.27-2.4 6.15-5.16z"/>
  </g>
</svg>
